<svg width="63" height="80" viewBox="0 0 63 80" fill="none" xmlns="http://www.w3.org/2000/svg">
<path d="M27.5625 68H35.4375V51.3L41.7375 57.7L47.25 52L31.5 36L15.75 52L21.3609 57.6L27.5625 51.3V68ZM7.875 80C5.70937 80 3.85547 79.2167 2.31328 77.65C0.771094 76.0833 0 74.2 0 72V8C0 5.8 0.771094 3.91667 2.31328 2.35C3.85547 0.783333 5.70937 0 7.875 0H39.375L63 24V72C63 74.2 62.2289 76.0833 60.6867 77.65C59.1445 79.2167 57.2906 80 55.125 80H7.875ZM35.4375 28V8H7.875V72H55.125V28H35.4375Z" fill="#009866"/>
</svg>
