<svg width="33" height="33" viewBox="0 0 33 33" fill="none" xmlns="http://www.w3.org/2000/svg">
<path d="M16.5 16.5C14.2312 16.5 12.2891 15.6922 10.6734 14.0766C9.05781 12.4609 8.25 10.5188 8.25 8.25C8.25 5.98125 9.05781 4.03906 10.6734 2.42344C12.2891 0.807813 14.2312 0 16.5 0C18.7688 0 20.7109 0.807813 22.3266 2.42344C23.9422 4.03906 24.75 5.98125 24.75 8.25C24.75 10.5188 23.9422 12.4609 22.3266 14.0766C20.7109 15.6922 18.7688 16.5 16.5 16.5ZM0 33V27.225C0 26.0562 0.300781 24.982 0.902344 24.0023C1.50391 23.0227 2.30313 22.275 3.3 21.7594C5.43125 20.6938 7.59687 19.8945 9.79688 19.3617C11.9969 18.8289 14.2312 18.5625 16.5 18.5625C18.7688 18.5625 21.0031 18.8289 23.2031 19.3617C25.4031 19.8945 27.5688 20.6938 29.7 21.7594C30.6969 22.275 31.4961 23.0227 32.0977 24.0023C32.6992 24.982 33 26.0562 33 27.225V33H0ZM4.125 28.875H28.875V27.225C28.875 26.8469 28.7805 26.5031 28.5914 26.1937C28.4023 25.8844 28.1531 25.6438 27.8438 25.4719C25.9875 24.5438 24.1141 23.8477 22.2234 23.3836C20.3328 22.9195 18.425 22.6875 16.5 22.6875C14.575 22.6875 12.6672 22.9195 10.7766 23.3836C8.88594 23.8477 7.0125 24.5438 5.15625 25.4719C4.84687 25.6438 4.59766 25.8844 4.40859 26.1937C4.21953 26.5031 4.125 26.8469 4.125 27.225V28.875ZM16.5 12.375C17.6344 12.375 18.6055 11.9711 19.4133 11.1633C20.2211 10.3555 20.625 9.38438 20.625 8.25C20.625 7.11562 20.2211 6.14453 19.4133 5.33672C18.6055 4.52891 17.6344 4.125 16.5 4.125C15.3656 4.125 14.3945 4.52891 13.5867 5.33672C12.7789 6.14453 12.375 7.11562 12.375 8.25C12.375 9.38438 12.7789 10.3555 13.5867 11.1633C14.3945 11.9711 15.3656 12.375 16.5 12.375Z" fill="black"/>
</svg>
