<svg width="33" height="33" viewBox="0 0 33 33" fill="none" xmlns="http://www.w3.org/2000/svg">
<path d="M30.4333 33L18.8833 21.45C17.9667 22.1833 16.9125 22.7639 15.7208 23.1917C14.5292 23.6194 13.2611 23.8333 11.9167 23.8333C8.58611 23.8333 5.76736 22.6799 3.46042 20.3729C1.15347 18.066 0 15.2472 0 11.9167C0 8.58611 1.15347 5.76736 3.46042 3.46042C5.76736 1.15347 8.58611 0 11.9167 0C15.2472 0 18.066 1.15347 20.3729 3.46042C22.6799 5.76736 23.8333 8.58611 23.8333 11.9167C23.8333 13.2611 23.6194 14.5292 23.1917 15.7208C22.7639 16.9125 22.1833 17.9667 21.45 18.8833L33 30.4333L30.4333 33ZM11.9167 20.1667C14.2083 20.1667 16.1563 19.3646 17.7604 17.7604C19.3646 16.1563 20.1667 14.2083 20.1667 11.9167C20.1667 9.625 19.3646 7.67708 17.7604 6.07292C16.1563 4.46875 14.2083 3.66667 11.9167 3.66667C9.625 3.66667 7.67708 4.46875 6.07292 6.07292C4.46875 7.67708 3.66667 9.625 3.66667 11.9167C3.66667 14.2083 4.46875 16.1563 6.07292 17.7604C7.67708 19.3646 9.625 20.1667 11.9167 20.1667Z" fill="black"/>
</svg>
