<svg width="33" height="33" viewBox="0 0 33 33" fill="none" xmlns="http://www.w3.org/2000/svg">
<path d="M4.5 33V17.5312L1.8 19.8L0 17.16L4.5 13.365V8.25H7.5V10.8488L16.5 3.3L33 17.16L31.2 19.7588L28.5 17.5312V33H4.5ZM7.5 29.7H15V23.1H18V29.7H25.5V15.015L16.5 7.46625L7.5 15.015V29.7ZM4.5 6.6C4.5 5.225 4.9375 4.05625 5.8125 3.09375C6.6875 2.13125 7.75 1.65 9 1.65C9.425 1.65 9.78125 1.49188 10.0688 1.17563C10.3563 0.859375 10.5 0.4675 10.5 0H13.5C13.5 1.375 13.0625 2.54375 12.1875 3.50625C11.3125 4.46875 10.25 4.95 9 4.95C8.575 4.95 8.21875 5.10813 7.93125 5.42438C7.64375 5.74063 7.5 6.1325 7.5 6.6H4.5Z" fill="black"/>
</svg>
