<?xml version="1.0" encoding="UTF-8" standalone="no"?>
<!-- Created with Inkscape (http://www.inkscape.org/) -->

<svg
   width="1920"
   height="1080"
   viewBox="0 0 508 285.75"
   version="1.1"
   id="svg1"
   xml:space="preserve"
   inkscape:version="1.3.2 (091e20e, 2023-11-25, custom)"
   sodipodi:docname="UnivTimeTableLogo.svg"
   xmlns:inkscape="http://www.inkscape.org/namespaces/inkscape"
   xmlns:sodipodi="http://sodipodi.sourceforge.net/DTD/sodipodi-0.dtd"
   xmlns="http://www.w3.org/2000/svg"
   xmlns:svg="http://www.w3.org/2000/svg"><sodipodi:namedview
     id="namedview1"
     pagecolor="#505050"
     bordercolor="#eeeeee"
     borderopacity="1"
     inkscape:showpageshadow="0"
     inkscape:pageopacity="0"
     inkscape:pagecheckerboard="0"
     inkscape:deskcolor="#505050"
     inkscape:document-units="mm"
     showguides="true"
     inkscape:zoom="0.81824846"
     inkscape:cx="1227.6222"
     inkscape:cy="682.55552"
     inkscape:window-width="3840"
     inkscape:window-height="2054"
     inkscape:window-x="2869"
     inkscape:window-y="-11"
     inkscape:window-maximized="1"
     inkscape:current-layer="layer1" /><defs
     id="defs1" /><g
     inkscape:label="Layer 1"
     inkscape:groupmode="layer"
     id="layer1"><rect
       style="opacity:1;fill:#ffffff;fill-opacity:1;stroke:none;stroke-width:1.2425;stroke-linecap:square;stroke-linejoin:round;stroke-dasharray:none;stroke-opacity:1;paint-order:stroke markers fill"
       id="rect9"
       width="220.4473"
       height="91.464493"
       x="22.384912"
       y="16.225142" /><g
       style="fill:#009866;fill-opacity:1"
       id="g3"
       transform="matrix(0.08889267,0,0,0.08889267,30.55852,103.0663)"><path
         d="m 200,-80 c -22,0 -40.83333,-7.833333 -56.5,-23.5 C 127.83333,-119.16667 120,-138 120,-160 v -560 c 0,-22 7.83333,-40.83333 23.5,-56.5 15.66667,-15.66667 34.5,-23.5 56.5,-23.5 h 66.98769 v -80 h 83.4984 v 80 h 259.02782 v -80 h 83.4984 v 80 H 760 c 22,0 40.83333,7.83333 56.5,23.5 15.66667,15.66667 23.5,34.5 23.5,56.5 v 560 c 0,22 -7.83333,40.83333 -23.5,56.5 C 800.83333,-87.833333 782,-80 760,-80 Z m 11.87748,-100.27369 H 748.12252 V -627.64862 H 211.87748 Z m 0,-497.07604 h 536.24504 v -22.37658 H 211.87748 Z m 0,0 v -22.37658 z"
         id="path1"
         sodipodi:nodetypes="ssssssccccccccsssssssccccccccccccc"
         style="fill:#009866;fill-opacity:1" /></g><path
       d="m 64.98947,71.608192 v 5.88106 c 0,1.72536 0.35809,3.80882 2.01835,5.63184 1.13938,1.23705 3.06007,2.53921 6.02248,2.53921 2.9624,0 4.8831,-1.30216 6.02248,-2.53921 1.66025,-1.82302 2.01835,-3.90648 2.01835,-5.63184 v -5.88106 h -3.32051 v 5.00211 c 0,1.17194 -0.0326,2.60431 -0.68363,3.7437 -0.65108,1.10683 -2.11601,2.24622 -4.03669,2.24622 -1.92068,0 -3.38561,-1.13939 -4.0367,-2.24622 -0.65107,-1.13939 -0.68362,-2.57176 -0.68362,-3.7437 v -5.00211 z"
       id="text1"
       style="font-size:100.908px;line-height:1;font-family:'Futura PT';-inkscape-font-specification:'Futura PT, Normal';text-align:center;letter-spacing:-7.58969px;text-anchor:middle;fill:#009866;stroke-width:2.41164;stroke-linecap:square;stroke-linejoin:round;paint-order:stroke markers fill"
       aria-label="U"
       sodipodi:nodetypes="cscscsccscscscc" /><path
       d="m 68.66506,55.070862 v -3.3514 H 54.42159 v 3.3514 h 5.3413 v 13.53138 h 3.56087 v -13.53138 z"
       id="text2"
       style="font-size:114.333px;line-height:1;font-family:'Futura PT';-inkscape-font-specification:'Futura PT, Normal';text-align:center;letter-spacing:-8.5994px;text-anchor:middle;fill:#009866;stroke-width:2.58621;stroke-linecap:square;stroke-linejoin:round;paint-order:stroke markers fill"
       aria-label="T"
       sodipodi:nodetypes="ccccccccc" /><path
       d="m 92.02669,55.070862 v -3.3514 H 77.78323 v 3.3514 h 5.34129 v 13.53138 h 3.56087 v -13.53138 z"
       id="text3"
       style="font-size:114.333px;line-height:1;font-family:'Futura PT';-inkscape-font-specification:'Futura PT, Normal';text-align:center;letter-spacing:-8.5994px;text-anchor:middle;fill:#009866;stroke-width:2.58621;stroke-linecap:square;stroke-linejoin:round;paint-order:stroke markers fill"
       aria-label="T"
       sodipodi:nodetypes="ccccccccc" /><text
       xml:space="preserve"
       style="font-style:normal;font-variant:normal;font-weight:normal;font-stretch:normal;font-size:59.1916px;line-height:1;font-family:'Futura PT';-inkscape-font-specification:'Futura PT, Normal';font-variant-ligatures:normal;font-variant-caps:normal;font-variant-numeric:normal;font-variant-east-asian:normal;text-align:center;letter-spacing:-0.437227px;text-anchor:middle;opacity:1;fill:#000000;fill-opacity:1;stroke:none;stroke-width:0.992481;stroke-linecap:square;stroke-linejoin:round;stroke-dasharray:none;stroke-opacity:1;paint-order:stroke markers fill"
       x="167.0222"
       y="71.708374"
       id="text9"><tspan
         sodipodi:role="line"
         id="tspan9"
         style="fill:#000000;fill-opacity:1;stroke-width:0.992491"
         x="166.80359"
         y="71.708374">Univ</tspan></text><text
       xml:space="preserve"
       style="font-style:normal;font-variant:normal;font-weight:normal;font-stretch:normal;font-size:26.0008px;line-height:1;font-family:'Futura PT';-inkscape-font-specification:'Futura PT, Normal';font-variant-ligatures:normal;font-variant-caps:normal;font-variant-numeric:normal;font-variant-east-asian:normal;text-align:center;letter-spacing:-0.19206px;text-anchor:middle;opacity:1;fill:#000000;fill-opacity:1;stroke:none;stroke-width:0.435971;stroke-linecap:square;stroke-linejoin:round;stroke-dasharray:none;stroke-opacity:1;paint-order:stroke markers fill"
       x="169.7097"
       y="95.682808"
       id="text10"><tspan
         sodipodi:role="line"
         id="tspan10"
         style="stroke-width:0.435971"
         x="169.61366"
         y="95.682808">TimeTable</tspan></text></g></svg>
