<?xml version="1.0" encoding="UTF-8" standalone="no"?>
<!-- Created with Inkscape (http://www.inkscape.org/) -->

<svg
   width="483.79422"
   height="537.54913"
   viewBox="0 0 128.00389 142.22654"
   version="1.1"
   id="svg1"
   xml:space="preserve"
   inkscape:version="1.3.2 (091e20e, 2023-11-25, custom)"
   sodipodi:docname="UnivTimeTableLogo.svg"
   xmlns:inkscape="http://www.inkscape.org/namespaces/inkscape"
   xmlns:sodipodi="http://sodipodi.sourceforge.net/DTD/sodipodi-0.dtd"
   xmlns="http://www.w3.org/2000/svg"
   xmlns:svg="http://www.w3.org/2000/svg"><sodipodi:namedview
     id="namedview1"
     pagecolor="#505050"
     bordercolor="#eeeeee"
     borderopacity="1"
     inkscape:showpageshadow="0"
     inkscape:pageopacity="0"
     inkscape:pagecheckerboard="0"
     inkscape:deskcolor="#505050"
     inkscape:document-units="mm"
     showguides="true"
     inkscape:zoom="0.81824846"
     inkscape:cx="1227.6222"
     inkscape:cy="682.55552"
     inkscape:window-width="3840"
     inkscape:window-height="2054"
     inkscape:window-x="2869"
     inkscape:window-y="-11"
     inkscape:window-maximized="1"
     inkscape:current-layer="layer1" /><defs
     id="defs1" /><g
     inkscape:label="Layer 1"
     inkscape:groupmode="layer"
     id="layer1"
     transform="translate(-96.195702,-61.359367)"><g
       style="fill:#009866;fill-opacity:1"
       id="g3"
       transform="matrix(0.17778317,0,0,0.17778317,74.86172,217.80856)"><path
         d="m 200,-80 c -22,0 -40.83333,-7.833333 -56.5,-23.5 C 127.83333,-119.16667 120,-138 120,-160 v -560 c 0,-22 7.83333,-40.83333 23.5,-56.5 15.66667,-15.66667 34.5,-23.5 56.5,-23.5 h 66.98769 v -80 h 83.4984 v 80 h 259.02782 v -80 h 83.4984 v 80 H 760 c 22,0 40.83333,7.83333 56.5,23.5 15.66667,15.66667 23.5,34.5 23.5,56.5 v 560 c 0,22 -7.83333,40.83333 -23.5,56.5 C 800.83333,-87.833333 782,-80 760,-80 Z m 11.87748,-100.27369 H 748.12252 V -627.64862 H 211.87748 Z m 0,-497.07604 h 536.24504 v -22.37658 H 211.87748 Z m 0,0 v -22.37658 z"
         id="path1"
         sodipodi:nodetypes="ssssssccccccccsssssssccccccccccccc"
         style="fill:#009866;fill-opacity:1" /></g><path
       d="m 143.72278,154.89311 v 11.76198 c 0,3.45068 0.71617,7.61754 4.03665,11.26354 2.27873,2.47407 6.12007,5.07835 12.04481,5.07835 5.92473,0 9.76608,-2.60428 12.04482,-5.07835 3.32046,-3.646 4.03665,-7.81286 4.03665,-11.26354 v -11.76198 h -6.64094 v 10.0041 c 0,2.34385 -0.0652,5.20856 -1.36725,7.4873 -1.30214,2.21364 -4.23196,4.49239 -8.07328,4.49239 -3.84131,0 -6.77113,-2.27875 -8.0733,-4.49239 -1.30212,-2.27874 -1.36722,-5.14345 -1.36722,-7.4873 v -10.0041 z"
       id="text1"
       style="font-size:100.908px;line-height:1;font-family:'Futura PT';-inkscape-font-specification:'Futura PT, Normal';text-align:center;letter-spacing:-7.58969px;text-anchor:middle;fill:#009866;stroke-width:4.82322;stroke-linecap:square;stroke-linejoin:round;paint-order:stroke markers fill"
       aria-label="U"
       sodipodi:nodetypes="cscscsccscscscc" /><path
       d="m 151.07387,121.81885 v -6.70271 h -28.48659 v 6.70271 h 10.68247 v 27.06243 h 7.12165 v -27.06243 z"
       id="text2"
       style="font-size:114.333px;line-height:1;font-family:'Futura PT';-inkscape-font-specification:'Futura PT, Normal';text-align:center;letter-spacing:-8.5994px;text-anchor:middle;fill:#009866;stroke-width:5.17236;stroke-linecap:square;stroke-linejoin:round;paint-order:stroke markers fill"
       aria-label="T"
       sodipodi:nodetypes="ccccccccc" /><path
       d="m 197.79656,121.81885 v -6.70271 h -28.48657 v 6.70271 h 10.68245 v 27.06243 h 7.12165 v -27.06243 z"
       id="text3"
       style="font-size:114.333px;line-height:1;font-family:'Futura PT';-inkscape-font-specification:'Futura PT, Normal';text-align:center;letter-spacing:-8.5994px;text-anchor:middle;fill:#009866;stroke-width:5.17236;stroke-linecap:square;stroke-linejoin:round;paint-order:stroke markers fill"
       aria-label="T"
       sodipodi:nodetypes="ccccccccc" /></g></svg>
